<svg viewBox="0 0 24 24" stroke-linecap="round" stroke-linejoin="round" stroke-width="0.09375em" class="css-z61snw"><path d="M8.977 6.802a2.481 2.481 0 01-.48.148l4.026 10.248c.153-.065.313-.115.48-.149L8.976 6.802zM14.34 17.145c.16.057.312.13.455.216l3.474-5.685a2.508 2.508 0 01-.41-.29l-3.518 5.759zM7.47 6.944a2.482 2.482 0 01-.477-.155l-1.777 4.315c.162.048.316.112.462.19l1.792-4.35z"></path><circle cx="4.5" cy="13.5" r="2.5"></circle><circle cx="19.5" cy="9.5" r="2.5"></circle><circle cx="8" cy="4.5" r="2.5"></circle><circle cx="13.5" cy="19.5" r="2.5"></circle></svg>