<?xml version="1.0" encoding="iso-8859-1"?>
<!-- Generator: Adobe Illustrator 19.0.0, SVG Export Plug-In . SVG Version: 6.00 Build 0)  -->
<svg version="1.1" id="Layer_1" xmlns="http://www.w3.org/2000/svg" xmlns:xlink="http://www.w3.org/1999/xlink" x="0px" y="0px"
	 viewBox="0 0 512 512" style="enable-background:new 0 0 512 512;" xml:space="preserve">
<path style="fill:#96C8EF;" d="M406.415,280.482h-31.582c-52.851,0-39.824-37.093-39.824-37.093s6.141-26.797,32.583-29.09
	c21.329-1.849,33.688,13.367,33.688,13.367l-0.023-44.942l-94.906-15.818L139.986,332.693h266.429
	c14.358,0,26.105-11.748,26.105-26.105l0,0C432.521,292.23,420.773,280.482,406.415,280.482z"/>
<path style="fill:#78B9EB;" d="M391.945,306.588c0-14.358-11.747-26.105-26.106-26.105l0.047-0.399
	c-42.36-3.988-30.878-36.694-30.878-36.694s6.141-26.797,32.583-29.09c21.329-1.849,33.688,13.367,33.688,13.367l-0.023-44.942
	l-94.906-15.818L139.986,332.693H365.84C380.199,332.693,391.945,320.946,391.945,306.588z"/>
<path style="fill:#96C8EF;" d="M171.941,280.482H64.86c-14.358,0-26.105,11.747-26.105,26.105l0,0
	c0,14.358,11.748,26.105,26.105,26.105h107.082c14.358,0,26.105-11.748,26.105-26.105l0,0
	C198.047,292.23,186.299,280.482,171.941,280.482z"/>
<path style="fill:#78B9EB;" d="M198.047,306.588L198.047,306.588c0-14.358-11.747-26.105-26.105-26.105H99.69
	c-14.358,0-26.105,11.747-26.105,26.105l0,0c0,14.358,11.748,26.106,26.105,26.106h72.253
	C186.299,332.693,198.047,320.946,198.047,306.588z"/>
<path style="fill:#B9D8F4;" d="M485.895,313.42h-15.526c-14.358,0-26.105,11.747-26.105,26.105l0,0
	c0,14.358,11.748,26.105,26.105,26.105h15.526c14.358,0,26.105-11.747,26.105-26.105l0,0C512,325.167,500.252,313.42,485.895,313.42
	z"/>
<path style="fill:#5AAAE7;" d="M131.958,203.79h-15.525c-14.358,0-26.105,11.747-26.105,26.105l0,0
	c0,14.358,11.748,26.105,26.105,26.105h15.525c14.358,0,26.105-11.748,26.105-26.105l0,0
	C158.064,215.538,146.316,203.79,131.958,203.79z"/>
<path style="fill:#B9D8F4;" d="M397.483,313.42h-31.582c-88.301,0-56.759-68.914-56.759-68.914
	c31.263-67.551,77.169-31.643,77.169-31.643l6.013-30.139l-93.045,2.977L67.769,365.631h329.714
	c14.358,0,26.105-11.748,26.105-26.105l0,0C423.588,325.168,411.841,313.42,397.483,313.42z"/>
<path style="fill:#96C8EF;" d="M67.769,365.631h116.91c25.838-16.112,47.628-37.34,67.543-58.478
	c7.148-7.586,13.573-15.43,19.788-23.015c11.099-13.549,37.132-39.632,37.132-39.632c31.263-67.551,77.169-31.643,77.169-31.643
	l6.013-30.139l-93.045,2.977L67.769,365.631z"/>
<path style="fill:#D1E7F8;" d="M450.113,205.834c-16.992-25.275-39.563-44.842-68.814-54.293
	c-20.784-6.715-43.132-6.25-64.358-2.254c-10.458,1.969-20.636,5.466-30.258,9.993c-14.743,6.937-27.782,19.293-39.348,30.552
	c-12.306,11.979-23.778,24.801-35.28,37.542c-18.043,19.985-36.206,39.937-57.078,57.043c0,0-32.297,29.314-96.929,29.014
	c-10.65-0.049-21.299,0-31.95,0C11.872,313.432,0,325.304,0,339.531s11.872,26.099,26.099,26.099c13.89,0,27.78,0,41.669,0
	c27.504,0,53.526-4.293,78.865-15.264c32.315-13.99,58.921-39.395,82.776-64.712c23.241-24.664,39.757-54.57,81.855-80.334
	c25.978-15.898,56.123-3.743,63.199-0.897c-8.275-3.328-2.145-0.907-0.354,0.036c15.984,8.41,30.933,27.718,30.933,27.718
	c10.731,13.444,22.851,16.895,35.708,9.363C452.439,234.695,458.061,217.657,450.113,205.834L450.113,205.834z"/>
<g>
	<path style="fill:#96C8EF;" d="M280.381,342.121h-18.459c-4.329,0-7.837-3.509-7.837-7.837c0-4.328,3.508-7.837,7.837-7.837h18.459
		c4.329,0,7.837,3.509,7.837,7.837C288.217,338.612,284.71,342.121,280.381,342.121z"/>
	<path style="fill:#96C8EF;" d="M355.265,342.121h-49.11c-4.329,0-7.837-3.509-7.837-7.837c0-4.328,3.508-7.837,7.837-7.837h49.11
		c4.329,0,7.837,3.509,7.837,7.837C363.102,338.612,359.594,342.121,355.265,342.121z"/>
</g>
<g>
</g>
<g>
</g>
<g>
</g>
<g>
</g>
<g>
</g>
<g>
</g>
<g>
</g>
<g>
</g>
<g>
</g>
<g>
</g>
<g>
</g>
<g>
</g>
<g>
</g>
<g>
</g>
<g>
</g>
</svg>
